<svg width="269" height="73" viewBox="0 0 269 73" fill="none" xmlns="http://www.w3.org/2000/svg">
<rect x="0.0463867" width="72.2136" height="72.2136" rx="20" transform="rotate(0.0368915 0.0463867 0)" fill="#f4c50c"/>
<rect x="11.0317" y="11" width="49.0677" height="49.0361" rx="20" transform="rotate(0.0368915 11.0317 11)" fill="black"/>
<path d="M33.6947 25.8289L33.683 44.0107L31.1617 44.0091L21.9285 30.6686L21.7598 30.6685L21.7512 44.003L19.0079 44.0013L19.0196 25.8195L21.5587 25.8211L30.8008 39.1793L30.9695 39.1794L30.9781 25.8272L33.6947 25.8289ZM47.6099 30.6142C47.5157 29.7737 47.1255 29.1224 46.4393 28.6603C45.753 28.1923 44.889 27.9579 43.8474 27.9573C43.1016 27.9568 42.4564 28.0747 41.9118 28.3111C41.3671 28.5416 40.9437 28.8609 40.6416 29.2691C40.3454 29.6714 40.1972 30.13 40.1969 30.6449C40.1966 31.0769 40.297 31.4499 40.498 31.7637C40.7049 32.0775 40.9741 32.3411 41.3054 32.5543C41.6426 32.7617 42.0035 32.9365 42.3881 33.0788C42.7727 33.2152 43.1426 33.3279 43.4976 33.4169L45.2729 33.8797C45.8528 34.0221 46.4475 34.2149 47.057 34.4579C47.6664 34.701 48.2314 35.0209 48.752 35.4178C49.2726 35.8147 49.6925 36.3062 50.0117 36.8923C50.3369 37.4785 50.4992 38.1799 50.4987 38.9967C50.498 40.0265 50.2311 40.9408 49.6979 41.7394C49.1706 42.5381 48.4038 43.1679 47.3973 43.6289C46.3968 44.0899 45.1863 44.32 43.7658 44.3191C42.4046 44.3182 41.2269 44.1014 40.2329 43.6687C39.2388 43.236 38.4609 42.6229 37.8992 41.8295C37.3374 41.0301 37.0273 40.083 36.9688 38.988L39.721 38.9898C39.7738 39.6468 39.9865 40.1944 40.3591 40.6326C40.7376 41.0649 41.2198 41.3877 41.8056 41.6012C42.3973 41.8087 43.0453 41.9127 43.7496 41.9132C44.5249 41.9137 45.2145 41.7928 45.8184 41.5505C46.4282 41.3023 46.9078 40.9593 47.2573 40.5216C47.6067 40.0779 47.7817 39.5602 47.7821 38.9683C47.7824 38.4297 47.6288 37.9887 47.3213 37.6452C47.0196 37.3017 46.6085 37.0174 46.0878 36.7922C45.573 36.5669 44.9902 36.3683 44.3392 36.1962L42.1912 35.6089C40.7355 35.2114 39.5817 34.6277 38.7299 33.8577C37.8841 33.0878 37.4616 32.0695 37.4624 30.8029C37.4631 29.7553 37.7477 28.8411 38.3164 28.0602C38.8851 27.2793 39.6549 26.6732 40.6258 26.2418C41.5968 25.8044 42.6918 25.5861 43.911 25.5869C45.1421 25.5877 46.228 25.8044 47.1688 26.2371C48.1155 26.6698 48.8608 27.2651 49.4049 28.023C49.9489 28.775 50.2324 29.6393 50.2555 30.6159L47.6099 30.6142Z" fill="#f4c50c"/>
<mask id="path-4-outside-1_33_817" maskUnits="userSpaceOnUse" x="84.0045" y="20.0019" width="183.024" height="38.1178" fill="black">
<rect fill="white" x="84.0045" y="20.0019" width="183.024" height="38.1178"/>
<path d="M111.499 24.9287L111.481 54.0196L107.447 54.017L92.6734 32.6723L92.4035 32.6721L92.3897 54.0073L88.0005 54.0045L88.0193 24.9136L92.0818 24.9162L106.869 46.2894L107.139 46.2895L107.153 24.9259L111.499 24.9287ZM123.892 54.5106C122.509 54.5097 121.259 54.2532 120.142 53.7411C119.025 53.2195 118.14 52.4661 117.487 51.4809C116.844 50.4956 116.523 49.288 116.524 47.8581C116.524 46.627 116.762 45.6139 117.236 44.8188C117.71 44.0236 118.349 43.3943 119.155 42.9308C119.96 42.4673 120.86 42.1175 121.854 41.8814C122.849 41.6453 123.862 41.466 124.894 41.3436C126.201 41.1929 127.262 41.0705 128.076 40.9763C128.891 40.8727 129.483 40.7073 129.852 40.4803C130.222 40.2533 130.407 39.8841 130.407 39.3727L130.407 39.2733C130.408 38.0327 130.058 37.0713 129.358 36.3891C128.667 35.7068 127.635 35.3652 126.262 35.3644C124.832 35.3634 123.705 35.6799 122.881 36.3139C122.066 36.9384 121.502 37.634 121.189 38.4009L117.198 37.4892C117.672 36.1637 118.364 35.0941 119.274 34.2803C120.193 33.457 121.249 32.8611 122.443 32.4926C123.636 32.1146 124.891 31.926 126.207 31.9268C127.078 31.9274 128.002 32.0321 128.977 32.2411C129.962 32.4406 130.88 32.8105 131.732 33.3508C132.593 33.8912 133.298 34.6634 133.847 35.6675C134.395 36.6622 134.669 37.955 134.668 39.5459L134.659 54.0345L130.511 54.0319L130.513 51.0489L130.343 51.0488C130.068 51.5979 129.655 52.1374 129.106 52.6673C128.556 53.1973 127.85 53.6372 126.988 53.987C126.127 54.3368 125.094 54.5113 123.892 54.5106ZM124.817 51.1021C125.991 51.1028 126.995 50.8715 127.829 50.408C128.672 49.9445 129.312 49.3389 129.748 48.591C130.193 47.8337 130.416 47.0242 130.417 46.1625L130.419 43.35C130.267 43.5014 129.973 43.6433 129.538 43.7756C129.111 43.8984 128.624 44.007 128.074 44.1013C127.525 44.1862 126.99 44.2663 126.469 44.3418C125.948 44.4077 125.513 44.4643 125.162 44.5114C124.338 44.615 123.585 44.7897 122.903 45.0355C122.231 45.2813 121.691 45.636 121.283 46.0998C120.885 46.5541 120.686 47.16 120.686 47.9176C120.685 48.9687 121.073 49.7644 121.849 50.3047C122.625 50.8355 123.614 51.1013 124.817 51.1021ZM144.571 41.0864L144.563 54.0409L140.316 54.0382L140.33 32.22L144.407 32.2226L144.404 35.7738L144.674 35.7739C145.177 34.619 145.963 33.6914 147.034 32.9914C148.114 32.2913 149.473 31.9418 151.111 31.9429C152.598 31.9438 153.9 32.2571 155.017 32.8829C156.134 33.4991 157 34.4182 157.615 35.6402C158.229 36.8622 158.536 38.3728 158.535 40.1721L158.526 54.0499L154.279 54.0472L154.288 40.6807C154.289 39.0993 153.877 37.8632 153.054 36.9725C152.231 36.0724 151.1 35.6218 149.66 35.6209C148.675 35.6203 147.799 35.8328 147.032 36.2584C146.274 36.6841 145.672 37.3087 145.227 38.1322C144.791 38.9464 144.572 39.9311 144.571 41.0864ZM173.412 54.4998C171.367 54.4985 169.582 54.0286 168.058 53.0901C166.534 52.1517 165.351 50.8393 164.509 49.1532C163.668 47.467 163.248 45.4971 163.249 43.2433C163.25 40.98 163.673 39.0011 164.517 37.3066C165.361 35.6121 166.545 34.2965 168.071 33.36C169.596 32.4235 171.381 31.9559 173.427 31.9572C175.472 31.9585 177.257 32.4284 178.781 33.3669C180.305 34.3054 181.488 35.6225 182.329 37.3181C183.171 39.0137 183.591 40.9931 183.59 43.2564C183.588 45.5102 183.166 47.4796 182.322 49.1647C181.478 50.8497 180.293 52.1605 178.768 53.097C177.243 54.0335 175.458 54.5011 173.412 54.4998ZM173.429 50.9345C174.754 50.9354 175.853 50.5857 176.725 49.8855C177.596 49.1853 178.241 48.2529 178.658 47.0884C179.085 45.9239 179.299 44.6409 179.3 43.2394C179.301 41.8474 179.089 40.5688 178.663 39.4038C178.247 38.2293 177.604 37.2866 176.733 36.5758C175.863 35.865 174.764 35.5092 173.439 35.5084C172.103 35.5075 170.995 35.8619 170.114 36.5716C169.242 37.2812 168.593 38.2231 168.166 39.397C167.749 40.5615 167.54 41.8398 167.539 43.2318C167.538 44.6334 167.745 45.9166 168.161 47.0817C168.587 48.2467 169.235 49.1799 170.105 49.8812C170.986 50.5825 172.093 50.9336 173.429 50.9345ZM204.545 32.6307C204.394 31.2859 203.77 30.2438 202.672 29.5045C201.574 28.7556 200.192 28.3807 198.525 28.3796C197.332 28.3789 196.299 28.5676 195.428 28.9458C194.556 29.3146 193.879 29.8255 193.396 30.4786C192.922 31.1222 192.685 31.856 192.684 32.6798C192.684 33.3711 192.844 33.9678 193.166 34.4699C193.497 34.972 193.928 35.3937 194.458 35.735C194.997 36.0668 195.575 36.3465 196.19 36.5742C196.805 36.7924 197.397 36.9727 197.965 37.1151L200.806 37.8555C201.734 38.0834 202.685 38.3918 203.66 38.7807C204.635 39.1696 205.539 39.6815 206.372 40.3165C207.205 40.9515 207.877 41.7379 208.388 42.6758C208.908 43.6136 209.168 44.7359 209.167 46.0427C209.166 47.6905 208.739 49.1533 207.886 50.4311C207.042 51.709 205.815 52.7167 204.205 53.4543C202.604 54.1919 200.667 54.56 198.394 54.5585C196.216 54.5571 194.332 54.2103 192.742 53.518C191.151 52.8256 189.907 51.8447 189.008 50.5752C188.109 49.2962 187.613 47.7808 187.519 46.0288L191.923 46.0316C192.007 47.0828 192.348 47.959 192.944 48.6601C193.549 49.3518 194.321 49.8684 195.258 50.2099C196.205 50.542 197.242 50.7084 198.368 50.7091C199.609 50.7099 200.712 50.5165 201.678 50.1288C202.654 49.7317 203.422 49.183 203.981 48.4826C204.54 47.7727 204.82 46.9443 204.82 45.9973C204.821 45.1356 204.575 44.4299 204.083 43.8804C203.6 43.3308 202.943 42.8759 202.11 42.5155C201.286 42.1551 200.353 41.8373 199.312 41.562L195.875 40.6222C193.546 39.9863 191.7 39.0523 190.337 37.8204C188.984 36.5885 188.308 34.9592 188.309 32.9327C188.31 31.2566 188.765 29.7938 189.675 28.5444C190.585 27.295 191.817 26.3251 193.37 25.6348C194.924 24.9351 196.676 24.5858 198.627 24.5871C200.596 24.5883 202.334 24.9351 203.839 25.6274C205.354 26.3196 206.546 27.2721 207.417 28.4848C208.287 29.688 208.741 31.0709 208.778 32.6334L204.545 32.6307ZM223.256 54.5319C221.21 54.5306 219.426 54.0607 217.902 53.1222C216.378 52.1837 215.195 50.8714 214.353 49.1853C213.511 47.4991 213.091 45.5292 213.093 43.2754C213.094 41.0121 213.517 39.0332 214.361 37.3387C215.205 35.6442 216.389 34.3286 217.914 33.3921C219.44 32.4556 221.225 31.988 223.27 31.9893C225.316 31.9906 227.101 32.4605 228.625 33.399C230.149 34.3375 231.332 35.6545 232.173 37.3502C233.015 39.0458 233.435 41.0252 233.434 43.2885C233.432 45.5423 233.009 47.5117 232.166 49.1968C231.322 50.8818 230.137 52.1926 228.612 53.1291C227.087 54.0656 225.301 54.5332 223.256 54.5319ZM223.272 50.9666C224.598 50.9674 225.697 50.6178 226.569 49.9176C227.44 49.2174 228.085 48.285 228.502 47.1205C228.929 45.956 229.143 44.673 229.144 43.2715C229.145 41.8795 228.933 40.6009 228.507 39.4359C228.091 38.2614 227.448 37.3187 226.577 36.6079C225.706 35.8971 224.608 35.5413 223.282 35.5405C221.947 35.5396 220.839 35.894 219.958 36.6037C219.086 37.3133 218.437 38.2551 218.01 39.4291C217.593 40.5936 217.383 41.8719 217.382 43.2639C217.382 44.6655 217.589 45.9487 218.005 47.1138C218.43 48.2788 219.078 49.212 219.949 49.9133C220.829 50.6146 221.937 50.9657 223.272 50.9666ZM248.565 32.2897L248.563 35.6988L236.233 35.6908L236.235 32.2818L248.565 32.2897ZM239.602 54.1021L239.618 29.7555C239.619 28.3919 239.918 27.2604 240.515 26.3612C241.112 25.4525 241.903 24.7759 242.888 24.3315C243.873 23.8776 244.944 23.651 246.099 23.6517C246.951 23.6523 247.68 23.7238 248.286 23.8662C248.892 23.9992 249.342 24.1226 249.636 24.2364L248.639 27.6733C248.44 27.6163 248.185 27.5499 247.872 27.4739C247.56 27.3885 247.181 27.3456 246.736 27.3453C245.704 27.3447 244.965 27.5999 244.519 28.1109C244.083 28.622 243.865 29.3605 243.865 30.3264L243.849 54.1048L239.602 54.1021ZM263.132 32.2991L263.13 35.7082L251.212 35.7005L251.214 32.2914L263.132 32.2991ZM254.414 27.0662L258.661 27.0689L258.647 47.7081C258.647 48.532 258.77 49.1523 259.016 49.5692C259.261 49.9765 259.579 50.2561 259.967 50.4078C260.364 50.5501 260.795 50.6214 261.259 50.6217C261.6 50.622 261.898 50.5985 262.154 50.5513C262.41 50.5041 262.609 50.4664 262.751 50.438L263.516 53.9471C263.269 54.0416 262.919 54.1361 262.464 54.2305C262.01 54.3343 261.441 54.3908 260.76 54.3998C259.642 54.418 258.601 54.2185 257.635 53.8012C256.669 53.3839 255.888 52.7395 255.292 51.8679C254.696 50.9963 254.399 49.9024 254.4 48.5861L254.414 27.0662Z"/>
</mask>
<path d="M111.499 24.9287L111.481 54.0196L107.447 54.017L92.6734 32.6723L92.4035 32.6721L92.3897 54.0073L88.0005 54.0045L88.0193 24.9136L92.0818 24.9162L106.869 46.2894L107.139 46.2895L107.153 24.9259L111.499 24.9287ZM123.892 54.5106C122.509 54.5097 121.259 54.2532 120.142 53.7411C119.025 53.2195 118.14 52.4661 117.487 51.4809C116.844 50.4956 116.523 49.288 116.524 47.8581C116.524 46.627 116.762 45.6139 117.236 44.8188C117.71 44.0236 118.349 43.3943 119.155 42.9308C119.96 42.4673 120.86 42.1175 121.854 41.8814C122.849 41.6453 123.862 41.466 124.894 41.3436C126.201 41.1929 127.262 41.0705 128.076 40.9763C128.891 40.8727 129.483 40.7073 129.852 40.4803C130.222 40.2533 130.407 39.8841 130.407 39.3727L130.407 39.2733C130.408 38.0327 130.058 37.0713 129.358 36.3891C128.667 35.7068 127.635 35.3652 126.262 35.3644C124.832 35.3634 123.705 35.6799 122.881 36.3139C122.066 36.9384 121.502 37.634 121.189 38.4009L117.198 37.4892C117.672 36.1637 118.364 35.0941 119.274 34.2803C120.193 33.457 121.249 32.8611 122.443 32.4926C123.636 32.1146 124.891 31.926 126.207 31.9268C127.078 31.9274 128.002 32.0321 128.977 32.2411C129.962 32.4406 130.88 32.8105 131.732 33.3508C132.593 33.8912 133.298 34.6634 133.847 35.6675C134.395 36.6622 134.669 37.955 134.668 39.5459L134.659 54.0345L130.511 54.0319L130.513 51.0489L130.343 51.0488C130.068 51.5979 129.655 52.1374 129.106 52.6673C128.556 53.1973 127.85 53.6372 126.988 53.987C126.127 54.3368 125.094 54.5113 123.892 54.5106ZM124.817 51.1021C125.991 51.1028 126.995 50.8715 127.829 50.408C128.672 49.9445 129.312 49.3389 129.748 48.591C130.193 47.8337 130.416 47.0242 130.417 46.1625L130.419 43.35C130.267 43.5014 129.973 43.6433 129.538 43.7756C129.111 43.8984 128.624 44.007 128.074 44.1013C127.525 44.1862 126.99 44.2663 126.469 44.3418C125.948 44.4077 125.513 44.4643 125.162 44.5114C124.338 44.615 123.585 44.7897 122.903 45.0355C122.231 45.2813 121.691 45.636 121.283 46.0998C120.885 46.5541 120.686 47.16 120.686 47.9176C120.685 48.9687 121.073 49.7644 121.849 50.3047C122.625 50.8355 123.614 51.1013 124.817 51.1021ZM144.571 41.0864L144.563 54.0409L140.316 54.0382L140.33 32.22L144.407 32.2226L144.404 35.7738L144.674 35.7739C145.177 34.619 145.963 33.6914 147.034 32.9914C148.114 32.2913 149.473 31.9418 151.111 31.9429C152.598 31.9438 153.9 32.2571 155.017 32.8829C156.134 33.4991 157 34.4182 157.615 35.6402C158.229 36.8622 158.536 38.3728 158.535 40.1721L158.526 54.0499L154.279 54.0472L154.288 40.6807C154.289 39.0993 153.877 37.8632 153.054 36.9725C152.231 36.0724 151.1 35.6218 149.66 35.6209C148.675 35.6203 147.799 35.8328 147.032 36.2584C146.274 36.6841 145.672 37.3087 145.227 38.1322C144.791 38.9464 144.572 39.9311 144.571 41.0864ZM173.412 54.4998C171.367 54.4985 169.582 54.0286 168.058 53.0901C166.534 52.1517 165.351 50.8393 164.509 49.1532C163.668 47.467 163.248 45.4971 163.249 43.2433C163.25 40.98 163.673 39.0011 164.517 37.3066C165.361 35.6121 166.545 34.2965 168.071 33.36C169.596 32.4235 171.381 31.9559 173.427 31.9572C175.472 31.9585 177.257 32.4284 178.781 33.3669C180.305 34.3054 181.488 35.6225 182.329 37.3181C183.171 39.0137 183.591 40.9931 183.59 43.2564C183.588 45.5102 183.166 47.4796 182.322 49.1647C181.478 50.8497 180.293 52.1605 178.768 53.097C177.243 54.0335 175.458 54.5011 173.412 54.4998ZM173.429 50.9345C174.754 50.9354 175.853 50.5857 176.725 49.8855C177.596 49.1853 178.241 48.2529 178.658 47.0884C179.085 45.9239 179.299 44.6409 179.3 43.2394C179.301 41.8474 179.089 40.5688 178.663 39.4038C178.247 38.2293 177.604 37.2866 176.733 36.5758C175.863 35.865 174.764 35.5092 173.439 35.5084C172.103 35.5075 170.995 35.8619 170.114 36.5716C169.242 37.2812 168.593 38.2231 168.166 39.397C167.749 40.5615 167.54 41.8398 167.539 43.2318C167.538 44.6334 167.745 45.9166 168.161 47.0817C168.587 48.2467 169.235 49.1799 170.105 49.8812C170.986 50.5825 172.093 50.9336 173.429 50.9345ZM204.545 32.6307C204.394 31.2859 203.77 30.2438 202.672 29.5045C201.574 28.7556 200.192 28.3807 198.525 28.3796C197.332 28.3789 196.299 28.5676 195.428 28.9458C194.556 29.3146 193.879 29.8255 193.396 30.4786C192.922 31.1222 192.685 31.856 192.684 32.6798C192.684 33.3711 192.844 33.9678 193.166 34.4699C193.497 34.972 193.928 35.3937 194.458 35.735C194.997 36.0668 195.575 36.3465 196.19 36.5742C196.805 36.7924 197.397 36.9727 197.965 37.1151L200.806 37.8555C201.734 38.0834 202.685 38.3918 203.66 38.7807C204.635 39.1696 205.539 39.6815 206.372 40.3165C207.205 40.9515 207.877 41.7379 208.388 42.6758C208.908 43.6136 209.168 44.7359 209.167 46.0427C209.166 47.6905 208.739 49.1533 207.886 50.4311C207.042 51.709 205.815 52.7167 204.205 53.4543C202.604 54.1919 200.667 54.56 198.394 54.5585C196.216 54.5571 194.332 54.2103 192.742 53.518C191.151 52.8256 189.907 51.8447 189.008 50.5752C188.109 49.2962 187.613 47.7808 187.519 46.0288L191.923 46.0316C192.007 47.0828 192.348 47.959 192.944 48.6601C193.549 49.3518 194.321 49.8684 195.258 50.2099C196.205 50.542 197.242 50.7084 198.368 50.7091C199.609 50.7099 200.712 50.5165 201.678 50.1288C202.654 49.7317 203.422 49.183 203.981 48.4826C204.54 47.7727 204.82 46.9443 204.82 45.9973C204.821 45.1356 204.575 44.4299 204.083 43.8804C203.6 43.3308 202.943 42.8759 202.11 42.5155C201.286 42.1551 200.353 41.8373 199.312 41.562L195.875 40.6222C193.546 39.9863 191.7 39.0523 190.337 37.8204C188.984 36.5885 188.308 34.9592 188.309 32.9327C188.31 31.2566 188.765 29.7938 189.675 28.5444C190.585 27.295 191.817 26.3251 193.37 25.6348C194.924 24.9351 196.676 24.5858 198.627 24.5871C200.596 24.5883 202.334 24.9351 203.839 25.6274C205.354 26.3196 206.546 27.2721 207.417 28.4848C208.287 29.688 208.741 31.0709 208.778 32.6334L204.545 32.6307ZM223.256 54.5319C221.21 54.5306 219.426 54.0607 217.902 53.1222C216.378 52.1837 215.195 50.8714 214.353 49.1853C213.511 47.4991 213.091 45.5292 213.093 43.2754C213.094 41.0121 213.517 39.0332 214.361 37.3387C215.205 35.6442 216.389 34.3286 217.914 33.3921C219.44 32.4556 221.225 31.988 223.27 31.9893C225.316 31.9906 227.101 32.4605 228.625 33.399C230.149 34.3375 231.332 35.6545 232.173 37.3502C233.015 39.0458 233.435 41.0252 233.434 43.2885C233.432 45.5423 233.009 47.5117 232.166 49.1968C231.322 50.8818 230.137 52.1926 228.612 53.1291C227.087 54.0656 225.301 54.5332 223.256 54.5319ZM223.272 50.9666C224.598 50.9674 225.697 50.6178 226.569 49.9176C227.44 49.2174 228.085 48.285 228.502 47.1205C228.929 45.956 229.143 44.673 229.144 43.2715C229.145 41.8795 228.933 40.6009 228.507 39.4359C228.091 38.2614 227.448 37.3187 226.577 36.6079C225.706 35.8971 224.608 35.5413 223.282 35.5405C221.947 35.5396 220.839 35.894 219.958 36.6037C219.086 37.3133 218.437 38.2551 218.01 39.4291C217.593 40.5936 217.383 41.8719 217.382 43.2639C217.382 44.6655 217.589 45.9487 218.005 47.1138C218.43 48.2788 219.078 49.212 219.949 49.9133C220.829 50.6146 221.937 50.9657 223.272 50.9666ZM248.565 32.2897L248.563 35.6988L236.233 35.6908L236.235 32.2818L248.565 32.2897ZM239.602 54.1021L239.618 29.7555C239.619 28.3919 239.918 27.2604 240.515 26.3612C241.112 25.4525 241.903 24.7759 242.888 24.3315C243.873 23.8776 244.944 23.651 246.099 23.6517C246.951 23.6523 247.68 23.7238 248.286 23.8662C248.892 23.9992 249.342 24.1226 249.636 24.2364L248.639 27.6733C248.44 27.6163 248.185 27.5499 247.872 27.4739C247.56 27.3885 247.181 27.3456 246.736 27.3453C245.704 27.3447 244.965 27.5999 244.519 28.1109C244.083 28.622 243.865 29.3605 243.865 30.3264L243.849 54.1048L239.602 54.1021ZM263.132 32.2991L263.13 35.7082L251.212 35.7005L251.214 32.2914L263.132 32.2991ZM254.414 27.0662L258.661 27.0689L258.647 47.7081C258.647 48.532 258.77 49.1523 259.016 49.5692C259.261 49.9765 259.579 50.2561 259.967 50.4078C260.364 50.5501 260.795 50.6214 261.259 50.6217C261.6 50.622 261.898 50.5985 262.154 50.5513C262.41 50.5041 262.609 50.4664 262.751 50.438L263.516 53.9471C263.269 54.0416 262.919 54.1361 262.464 54.2305C262.01 54.3343 261.441 54.3908 260.76 54.3998C259.642 54.418 258.601 54.2185 257.635 53.8012C256.669 53.3839 255.888 52.7395 255.292 51.8679C254.696 50.9963 254.399 49.9024 254.4 48.5861L254.414 27.0662Z" fill="#f4c50c"/>
<path d="M111.499 24.9287L114.499 24.9306L114.501 21.9306L111.501 21.9287L111.499 24.9287ZM111.481 54.0196L111.479 57.0196L114.479 57.0215L114.481 54.0215L111.481 54.0196ZM107.447 54.017L104.98 55.7243L105.874 57.016L107.445 57.017L107.447 54.017ZM92.6734 32.6723L95.1402 30.9649L94.2462 29.6733L92.6753 29.6723L92.6734 32.6723ZM92.4035 32.6721L92.4054 29.6721L89.4054 29.6702L89.4035 32.6702L92.4035 32.6721ZM92.3898 54.0073L92.3878 57.0073L95.3878 57.0093L95.3897 54.0093L92.3898 54.0073ZM88.0005 54.0045L85.0005 54.0026L84.9986 57.0026L87.9986 57.0045L88.0005 54.0045ZM88.0193 24.9136L88.0212 21.9136L85.0212 21.9117L85.0193 24.9117L88.0193 24.9136ZM92.0818 24.9162L94.5489 23.2093L93.6549 21.9172L92.0837 21.9162L92.0818 24.9162ZM106.869 46.2894L104.402 47.9963L105.296 49.2884L106.867 49.2894L106.869 46.2894ZM107.139 46.2895L107.137 49.2895L110.137 49.2915L110.139 46.2915L107.139 46.2895ZM107.153 24.9259L107.155 21.9259L104.155 21.924L104.153 24.924L107.153 24.9259ZM108.499 24.9268L108.481 54.0177L114.481 54.0215L114.499 24.9306L108.499 24.9268ZM111.483 51.0196L107.448 51.017L107.445 57.017L111.479 57.0196L111.483 51.0196ZM109.913 52.3097L95.1402 30.9649L90.2066 34.3796L104.98 55.7243L109.913 52.3097ZM92.6753 29.6723L92.4054 29.6721L92.4016 35.6721L92.6714 35.6723L92.6753 29.6723ZM89.4035 32.6702L89.3898 54.0054L95.3897 54.0093L95.4035 32.674L89.4035 32.6702ZM92.3917 51.0073L88.0025 51.0045L87.9986 57.0045L92.3878 57.0073L92.3917 51.0073ZM91.0005 54.0064L91.0193 24.9155L85.0193 24.9117L85.0005 54.0026L91.0005 54.0064ZM88.0173 27.9136L92.0798 27.9162L92.0837 21.9162L88.0212 21.9136L88.0173 27.9136ZM89.6147 26.6231L104.402 47.9963L109.336 44.5825L94.5489 23.2093L89.6147 26.6231ZM106.867 49.2894L107.137 49.2895L107.141 43.2895L106.871 43.2894L106.867 49.2894ZM110.139 46.2915L110.153 24.9278L104.153 24.924L104.139 46.2876L110.139 46.2915ZM107.151 27.9259L111.497 27.9287L111.501 21.9287L107.155 21.9259L107.151 27.9259ZM120.142 53.7411L118.873 56.4594L118.882 56.4639L118.892 56.4682L120.142 53.7411ZM117.487 51.4809L114.975 53.121L114.981 53.1294L114.986 53.1378L117.487 51.4809ZM117.236 44.8188L119.813 46.3549L117.236 44.8188ZM119.155 42.9308L120.651 45.5308L119.155 42.9308ZM124.894 41.3436L124.551 38.3633L124.541 38.3645L124.894 41.3436ZM128.076 40.9763L128.421 43.9565L128.438 43.9545L128.455 43.9523L128.076 40.9763ZM129.852 40.4803L131.423 43.0363L131.423 43.0363L129.852 40.4803ZM129.358 36.3891L127.25 38.5236L127.257 38.5308L127.264 38.5379L129.358 36.3891ZM122.881 36.3139L124.705 38.695L124.709 38.6919L122.881 36.3139ZM121.189 38.4009L120.521 41.3255L123.004 41.8928L123.966 39.5345L121.189 38.4009ZM117.198 37.4892L114.373 36.4784L113.234 39.6611L116.53 40.4139L117.198 37.4892ZM119.274 34.2803L121.274 36.5161L121.276 36.5149L119.274 34.2803ZM122.443 32.4926L123.328 35.359L123.338 35.3558L123.349 35.3525L122.443 32.4926ZM128.977 32.2411L128.348 35.1745L128.365 35.178L128.381 35.1814L128.977 32.2411ZM131.732 33.3508L130.125 35.8843L130.131 35.8883L130.138 35.8922L131.732 33.3508ZM133.847 35.6675L131.214 37.1059L131.22 37.1164L133.847 35.6675ZM134.659 54.0345L134.657 57.0345L137.657 57.0365L137.659 54.0365L134.659 54.0345ZM130.511 54.0319L127.511 54.0299L127.509 57.0299L130.509 57.0319L130.511 54.0319ZM130.513 51.0489L133.513 51.0508L133.515 48.0508L130.515 48.0489L130.513 51.0489ZM130.343 51.0488L130.345 48.0488L128.49 48.0476L127.66 49.7054L130.343 51.0488ZM129.106 52.6673L127.023 50.5078L129.106 52.6673ZM126.988 53.987L125.86 51.2072L126.988 53.987ZM127.829 50.408L126.384 47.779L126.377 47.7825L126.371 47.786L127.829 50.408ZM129.748 48.591L127.162 47.0697L127.156 47.0798L129.748 48.591ZM130.419 43.35L133.419 43.3519L133.423 36.1093L128.299 41.2273L130.419 43.35ZM129.538 43.7756L130.368 46.6582L130.389 46.6523L130.409 46.6461L129.538 43.7756ZM128.074 44.1013L128.533 47.0661L128.557 47.0623L128.582 47.058L128.074 44.1013ZM126.469 44.3418L126.846 47.318L126.873 47.3146L126.899 47.3108L126.469 44.3418ZM125.162 44.5114L125.537 47.4879L125.549 47.4863L125.562 47.4846L125.162 44.5114ZM122.903 45.0355L121.886 42.2131L121.874 42.2178L122.903 45.0355ZM121.283 46.0998L119.03 44.1196L119.027 44.1228L121.283 46.0998ZM121.849 50.3047L120.135 52.7669L120.145 52.774L120.155 52.781L121.849 50.3047ZM123.893 51.5106C122.888 51.5099 122.071 51.3253 121.392 51.014L118.892 56.4682C120.447 57.1811 122.13 57.5094 123.89 57.5106L123.893 51.5106ZM121.411 51.0228C120.772 50.7243 120.322 50.3284 119.988 49.8239L114.986 53.1378C115.958 54.6039 117.278 55.7148 118.873 56.4594L121.411 51.0228ZM119.999 49.8407C119.738 49.44 119.523 48.8334 119.524 47.86L113.524 47.8562C113.522 49.7426 113.95 51.5513 114.975 53.121L119.999 49.8407ZM119.524 47.86C119.524 46.9962 119.692 46.5572 119.813 46.3549L114.659 43.2827C113.832 44.6707 113.525 46.2578 113.524 47.8562L119.524 47.86ZM119.813 46.3549C120.023 46.0027 120.29 45.739 120.651 45.5308L117.658 40.3308C116.409 41.0496 115.397 42.0445 114.659 43.2827L119.813 46.3549ZM120.651 45.5308C121.182 45.2255 121.807 44.9761 122.547 44.8003L121.161 38.9625C119.913 39.2589 118.738 39.7091 117.658 40.3308L120.651 45.5308ZM122.547 44.8003C123.428 44.5912 124.328 44.4318 125.248 44.3227L124.541 38.3645C123.396 38.5002 122.27 38.6994 121.161 38.9625L122.547 44.8003ZM125.238 44.3238C126.545 44.1732 127.606 44.0507 128.421 43.9565L127.732 37.9962C126.918 38.0903 125.858 38.2127 124.551 38.3633L125.238 44.3238ZM128.455 43.9523C129.381 43.8345 130.495 43.6066 131.423 43.0363L128.282 37.9243C128.411 37.8449 128.454 37.849 128.324 37.8852C128.206 37.9181 128.005 37.9612 127.698 38.0003L128.455 43.9523ZM131.423 43.0363C132.852 42.1582 133.406 40.7088 133.407 39.3746L127.407 39.3708C127.407 39.2695 127.426 39.0091 127.586 38.6898C127.756 38.3488 128.015 38.0881 128.282 37.9243L131.423 43.0363ZM133.407 39.3746L133.407 39.2752L127.407 39.2713L127.407 39.3708L133.407 39.3746ZM133.407 39.2752C133.408 37.4546 132.878 35.6301 131.451 34.2402L127.264 38.5379C127.276 38.5494 127.298 38.5708 127.326 38.6475C127.359 38.7372 127.407 38.9293 127.407 39.2713L133.407 39.2752ZM131.466 34.2545C130.016 32.8232 128.096 32.3655 126.264 32.3644L126.26 38.3644C127.174 38.3649 127.317 38.5904 127.25 38.5236L131.466 34.2545ZM126.264 32.3644C124.416 32.3632 122.566 32.7708 121.052 33.9358L124.709 38.6919C124.843 38.5891 125.247 38.3637 126.26 38.3644L126.264 32.3644ZM121.056 33.9328C119.919 34.8042 118.968 35.9022 118.411 37.2672L123.966 39.5345C124.035 39.3659 124.213 39.0725 124.705 38.695L121.056 33.9328ZM121.857 35.4762L117.866 34.5645L116.53 40.4139L120.521 41.3255L121.857 35.4762ZM120.023 38.5C120.355 37.5724 120.791 36.9486 121.274 36.5161L117.274 32.0445C115.938 33.2396 114.99 34.7551 114.373 36.4784L120.023 38.5ZM121.276 36.5149C121.868 35.9839 122.543 35.6015 123.328 35.359L121.557 29.6261C119.956 30.1207 118.518 30.9302 117.272 32.0457L121.276 36.5149ZM123.349 35.3525C124.234 35.0722 125.181 34.9262 126.205 34.9268L126.209 28.9268C124.601 28.9258 123.039 29.1569 121.537 29.6326L123.349 35.3525ZM126.205 34.9268C126.838 34.9272 127.55 35.0035 128.348 35.1745L129.605 29.3077C128.453 29.0608 127.319 28.9275 126.209 28.9268L126.205 34.9268ZM128.381 35.1814C129.005 35.3078 129.581 35.5393 130.125 35.8843L133.339 30.8174C132.179 30.0817 130.918 29.5734 129.573 29.3008L128.381 35.1814ZM130.138 35.8922C130.512 36.127 130.88 36.4948 131.214 37.1059L136.48 34.2292C135.716 32.832 134.675 31.6553 133.326 30.8094L130.138 35.8922ZM131.22 37.1164C131.445 37.5243 131.669 38.2681 131.668 39.544L137.668 39.5478C137.669 37.6419 137.346 35.8001 136.474 34.2187L131.22 37.1164ZM131.668 39.544L131.659 54.0326L137.659 54.0365L137.668 39.5478L131.668 39.544ZM134.661 51.0345L130.513 51.0319L130.509 57.0319L134.657 57.0345L134.661 51.0345ZM133.511 54.0338L133.513 51.0508L127.513 51.047L127.511 54.0299L133.511 54.0338ZM130.515 48.0489L130.345 48.0488L130.341 54.0488L130.511 54.0489L130.515 48.0489ZM127.66 49.7054C127.569 49.8867 127.385 50.1588 127.023 50.5078L131.188 54.8269C131.925 54.116 132.566 53.3091 133.025 52.3922L127.66 49.7054ZM127.023 50.5078C126.802 50.7209 126.443 50.9708 125.86 51.2072L128.117 56.7668C129.258 56.3036 130.31 55.6737 131.188 54.8269L127.023 50.5078ZM125.86 51.2072C125.446 51.3755 124.817 51.5112 123.893 51.5106L123.89 57.5106C125.371 57.5115 126.807 57.2981 128.117 56.7668L125.86 51.2072ZM124.815 54.1021C126.383 54.1031 127.914 53.7929 129.287 53.03L126.371 47.786C126.076 47.95 125.599 48.1026 124.819 48.1021L124.815 54.1021ZM129.274 53.0369C130.539 52.3416 131.6 51.3706 132.339 50.1023L127.156 47.0798C127.024 47.3071 126.805 47.5474 126.384 47.779L129.274 53.0369ZM132.333 50.1123C133.044 48.904 133.416 47.5714 133.417 46.1644L127.417 46.1606C127.417 46.4771 127.342 46.7635 127.162 47.0697L132.333 50.1123ZM133.417 46.1644L133.419 43.3519L127.419 43.3481L127.417 46.1606L133.417 46.1644ZM128.299 41.2273C128.434 41.0924 128.554 41.0054 128.628 40.9564C128.704 40.9062 128.759 40.8786 128.78 40.8686C128.815 40.8514 128.789 40.8677 128.666 40.905L130.409 46.6461C130.899 46.4974 131.824 46.1863 132.539 45.4727L128.299 41.2273ZM128.707 40.8929C128.41 40.9785 128.033 41.0645 127.567 41.1446L128.582 47.058C129.214 46.9495 129.813 46.8183 130.368 46.6582L128.707 40.8929ZM127.616 41.1365C127.076 41.22 126.55 41.2987 126.039 41.3727L126.899 47.3108C127.43 47.2339 127.974 47.1524 128.533 47.0661L127.616 41.1365ZM126.092 41.3655C125.567 41.432 125.123 41.4896 124.762 41.5381L125.562 47.4846C125.902 47.4389 126.329 47.3834 126.846 47.318L126.092 41.3655ZM124.788 41.5348C123.776 41.6621 122.804 41.8826 121.886 42.2132L123.92 47.8578C124.367 47.6969 124.901 47.5679 125.537 47.4879L124.788 41.5348ZM121.874 42.2178C120.805 42.6082 119.818 43.2223 119.03 44.1196L123.537 48.08C123.563 48.0498 123.656 47.9544 123.933 47.8532L121.874 42.2178ZM119.027 44.1228C118.037 45.2521 117.686 46.6226 117.686 47.9157L123.686 47.9195C123.686 47.8005 123.701 47.7827 123.685 47.8321C123.677 47.8574 123.662 47.8956 123.636 47.9414C123.61 47.9876 123.577 48.0338 123.54 48.0768L119.027 44.1228ZM117.686 47.9157C117.684 49.8214 118.453 51.5961 120.135 52.7669L123.563 47.8425C123.557 47.8387 123.575 47.8501 123.601 47.8809C123.629 47.9125 123.654 47.9503 123.673 47.9885C123.691 48.0259 123.695 48.0475 123.694 48.0427C123.693 48.0363 123.686 47.9981 123.686 47.9195L117.686 47.9157ZM120.155 52.781C121.552 53.7364 123.177 54.101 124.815 54.1021L124.819 48.1021C124.052 48.1016 123.698 47.9346 123.542 47.8284L120.155 52.781ZM144.563 54.0409L144.561 57.0409L147.561 57.0428L147.563 54.0428L144.563 54.0409ZM140.316 54.0382L137.316 54.0362L137.314 57.0362L140.314 57.0382L140.316 54.0382ZM140.33 32.22L140.332 29.22L137.332 29.2181L137.33 32.2181L140.33 32.22ZM144.407 32.2226L147.407 32.2246L147.409 29.2246L144.409 29.2226L144.407 32.2226ZM144.404 35.7738L141.404 35.7718L141.402 38.7718L144.402 38.7738L144.404 35.7738ZM144.674 35.7739L144.672 38.7739L146.64 38.7752L147.425 36.9711L144.674 35.7739ZM147.034 32.9914L145.402 30.474L145.392 30.4806L147.034 32.9914ZM155.017 32.8829L153.551 35.5002L153.559 35.5049L153.568 35.5096L155.017 32.8829ZM157.615 35.6402L154.935 36.9884L154.935 36.9884L157.615 35.6402ZM158.526 54.0499L158.524 57.0499L161.524 57.0518L161.526 54.0518L158.526 54.0499ZM154.279 54.0472L151.279 54.0452L151.277 57.0452L154.277 57.0472L154.279 54.0472ZM153.054 36.9725L150.84 38.9972L150.846 39.003L150.851 39.0089L153.054 36.9725ZM147.032 36.2584L145.577 33.635L145.57 33.6389L145.563 33.6427L147.032 36.2584ZM145.227 38.1322L142.588 36.7046L142.582 36.7156L145.227 38.1322ZM141.571 41.0844L141.563 54.039L147.563 54.0428L147.571 41.0883L141.571 41.0844ZM144.565 51.0409L140.318 51.0382L140.314 57.0382L144.561 57.0409L144.565 51.0409ZM143.316 54.0401L143.33 32.2219L137.33 32.2181L137.316 54.0362L143.316 54.0401ZM140.328 35.22L144.405 35.2226L144.409 29.2226L140.332 29.22L140.328 35.22ZM141.407 32.2207L141.404 35.7718L147.404 35.7757L147.407 32.2246L141.407 32.2207ZM144.402 38.7738L144.672 38.7739L144.676 32.7739L144.406 32.7738L144.402 38.7738ZM147.425 36.9711C147.69 36.3615 148.087 35.8872 148.676 35.5022L145.392 30.4806C143.84 31.4957 142.663 32.8764 141.923 34.5768L147.425 36.9711ZM148.666 35.5088C149.142 35.1998 149.894 34.9421 151.109 34.9429L151.113 28.9429C149.052 28.9415 147.086 29.3828 145.402 30.474L148.666 35.5088ZM151.109 34.9429C152.167 34.9435 152.949 35.1629 153.551 35.5002L156.483 30.2655C154.851 29.3514 153.029 28.9441 151.113 28.9429L151.109 34.9429ZM153.568 35.5096C154.116 35.8121 154.571 36.2659 154.935 36.9884L160.295 34.292C159.429 32.5705 158.152 31.1861 156.466 30.2561L153.568 35.5096ZM154.935 36.9884C155.283 37.6808 155.536 38.6977 155.535 40.1701L161.535 40.174C161.536 38.048 161.176 36.0436 160.295 34.292L154.935 36.9884ZM155.535 40.1701L155.526 54.048L161.526 54.0518L161.535 40.174L155.535 40.1701ZM158.528 51.0499L154.281 51.0472L154.277 57.0472L158.524 57.0499L158.528 51.0499ZM157.279 54.0491L157.288 40.6826L151.288 40.6788L151.279 54.0452L157.279 54.0491ZM157.288 40.6826C157.289 38.5819 156.734 36.5337 155.257 34.9362L150.851 39.0089C151.021 39.1927 151.288 39.6166 151.288 40.6788L157.288 40.6826ZM155.268 34.9478C153.774 33.3145 151.778 32.6223 149.662 32.6209L149.658 38.6209C150.421 38.6214 150.688 38.8302 150.84 38.9972L155.268 34.9478ZM149.662 32.6209C148.231 32.62 146.842 32.933 145.577 33.635L148.487 38.8818C148.756 38.7326 149.12 38.6205 149.658 38.6209L149.662 32.6209ZM145.563 33.6427C144.272 34.3675 143.282 35.4227 142.588 36.7046L147.865 39.5599C148.063 39.1947 148.276 39.0006 148.501 38.8741L145.563 33.6427ZM142.582 36.7156C141.862 38.0607 141.572 39.5571 141.571 41.0844L147.571 41.0883C147.572 40.3051 147.719 39.832 147.871 39.5489L142.582 36.7156ZM164.509 49.1532L167.194 47.8133L164.509 49.1532ZM168.071 33.36L169.64 35.9166L168.071 33.36ZM178.781 33.3669L177.208 35.9214L178.781 33.3669ZM182.322 49.1647L179.639 47.8213L182.322 49.1647ZM178.768 53.097L180.338 55.6536L178.768 53.097ZM176.725 49.8855L174.846 47.5466L174.846 47.5466L176.725 49.8855ZM178.658 47.0884L175.842 46.0559L175.838 46.066L175.834 46.0762L178.658 47.0884ZM178.663 39.4038L175.835 40.4052L175.84 40.419L175.845 40.4327L178.663 39.4038ZM176.733 36.5758L174.836 38.8999L174.836 38.8999L176.733 36.5758ZM170.114 36.5716L168.232 34.2351L168.226 34.2401L168.22 34.2451L170.114 36.5716ZM168.166 39.397L165.347 38.3718L165.342 38.3847L168.166 39.397ZM168.161 47.0817L165.336 48.0903L165.34 48.1005L165.343 48.1106L168.161 47.0817ZM170.105 49.8812L168.224 52.2177L168.23 52.2226L168.236 52.2275L170.105 49.8812ZM173.414 51.4998C171.843 51.4988 170.618 51.1435 169.631 50.5356L166.485 55.6446C168.546 56.9138 170.891 57.4982 173.41 57.4998L173.414 51.4998ZM169.631 50.5356C168.609 49.9063 167.799 49.0266 167.194 47.8133L161.825 50.4931C162.903 52.6521 164.459 54.397 166.485 55.6446L169.631 50.5356ZM167.194 47.8133C166.597 46.6178 166.248 45.1237 166.249 43.2452L160.249 43.2414C160.247 45.8705 160.739 48.3163 161.825 50.4931L167.194 47.8133ZM166.249 43.2452C166.25 41.3557 166.602 39.8501 167.202 38.644L161.832 35.9692C160.744 38.1521 160.251 40.6044 160.249 43.2414L166.249 43.2452ZM167.202 38.644C167.811 37.4219 168.622 36.5419 169.64 35.9166L166.501 30.8035C164.469 32.0512 162.911 33.8022 161.832 35.9692L167.202 38.644ZM169.64 35.9166C170.628 35.31 171.853 34.9562 173.425 34.9572L173.429 28.9572C170.909 28.9556 168.564 29.537 166.501 30.8035L169.64 35.9166ZM173.425 34.9572C174.996 34.9582 176.221 35.3136 177.208 35.9214L180.354 30.8124C178.293 29.5433 175.948 28.9588 173.429 28.9572L173.425 34.9572ZM177.208 35.9214C178.225 36.5481 179.035 37.4291 179.642 38.652L185.017 35.9842C183.94 33.8158 182.384 32.0627 180.354 30.8124L177.208 35.9214ZM179.642 38.652C180.241 39.8589 180.591 41.3649 180.59 43.2544L186.59 43.2583C186.592 40.6214 186.101 38.1685 185.017 35.9842L179.642 38.652ZM180.59 43.2544C180.589 45.1329 180.238 46.6266 179.639 47.8213L185.004 50.508C186.094 48.3326 186.588 45.8874 186.59 43.2583L180.59 43.2544ZM179.639 47.8213C179.032 49.0338 178.221 49.9125 177.198 50.5405L180.338 55.6536C182.366 54.4085 183.924 52.6656 185.004 50.508L179.639 47.8213ZM177.198 50.5405C176.211 51.1471 174.986 51.5008 173.414 51.4998L173.41 57.4998C175.93 57.5015 178.275 56.92 180.338 55.6536L177.198 50.5405ZM173.427 53.9345C175.304 53.9357 177.104 53.429 178.604 52.2243L174.846 47.5466C174.602 47.7424 174.205 47.935 173.431 47.9345L173.427 53.9345ZM178.604 52.2243C179.952 51.1414 180.899 49.729 181.482 48.1007L175.834 46.0762C175.583 46.7769 175.241 47.2291 174.846 47.5466L178.604 52.2243ZM181.475 48.121C182.038 46.5864 182.299 44.9492 182.3 43.2413L176.3 43.2375C176.299 44.3326 176.133 45.2615 175.842 46.0559L181.475 48.121ZM182.3 43.2413C182.301 41.5404 182.041 39.908 181.481 38.3748L175.845 40.4327C176.136 41.2296 176.301 42.1544 176.3 43.2375L182.3 43.2413ZM181.491 38.4024C180.913 36.7679 179.972 35.3468 178.63 34.2518L174.836 38.8999C175.236 39.2264 175.582 39.6906 175.835 40.4052L181.491 38.4024ZM178.63 34.2518C177.132 33.0288 175.327 32.5096 173.441 32.5084L173.437 38.5084C174.201 38.5089 174.593 38.7013 174.836 38.8999L178.63 34.2518ZM173.441 32.5084C171.549 32.5071 169.739 33.0213 168.232 34.2351L171.996 38.908C172.251 38.7026 172.658 38.5079 173.437 38.5084L173.441 32.5084ZM168.22 34.2451C166.882 35.3341 165.938 36.7467 165.347 38.3718L170.986 40.4222C171.248 39.6994 171.602 39.2284 172.008 38.898L168.22 34.2451ZM165.342 38.3847C164.795 39.9114 164.54 41.5362 164.539 43.2299L170.539 43.2338C170.539 42.1434 170.703 41.2117 170.99 40.4093L165.342 38.3847ZM164.539 43.2299C164.538 44.9306 164.79 46.5609 165.336 48.0903L170.987 46.073C170.701 45.2724 170.538 44.3362 170.539 43.2338L164.539 43.2299ZM165.343 48.1106C165.935 49.7309 166.882 51.1373 168.224 52.2177L171.987 47.5448C171.587 47.2226 171.238 46.7626 170.979 46.0527L165.343 48.1106ZM168.236 52.2275C169.741 53.4269 171.544 53.9333 173.427 53.9345L173.431 47.9345C172.642 47.934 172.23 47.7382 171.975 47.5349L168.236 52.2275ZM204.545 32.6307L201.564 32.9646L201.862 35.6289L204.543 35.6307L204.545 32.6307ZM202.672 29.5045L200.982 31.983L200.989 31.988L200.996 31.9929L202.672 29.5045ZM195.428 28.9458L196.597 31.7086L196.61 31.7033L196.622 31.6978L195.428 28.9458ZM193.396 30.4786L190.984 28.6939L190.98 28.6999L193.396 30.4786ZM193.166 34.4699L190.64 36.0882L190.65 36.1049L190.661 36.1215L193.166 34.4699ZM194.458 35.735L192.834 38.2575L192.86 38.2742L192.886 38.2905L194.458 35.735ZM196.19 36.5742L195.149 39.3878L195.168 39.3949L195.188 39.4017L196.19 36.5742ZM197.965 37.1151L198.722 34.2121L198.708 34.2085L198.695 34.2051L197.965 37.1151ZM200.806 37.8555L200.049 40.7585L200.07 40.7639L200.09 40.769L200.806 37.8555ZM208.388 42.6758L205.753 44.1106L205.759 44.1208L205.764 44.131L208.388 42.6758ZM207.886 50.4311L205.391 48.7654L205.386 48.7718L205.382 48.7783L207.886 50.4311ZM204.205 53.4543L202.955 50.7268L202.949 50.7296L204.205 53.4543ZM192.742 53.518L193.939 50.7673L192.742 53.518ZM189.008 50.5752L186.553 52.3001L186.559 52.3087L189.008 50.5752ZM187.519 46.0288L187.521 43.0288L184.355 43.0268L184.523 46.1888L187.519 46.0288ZM191.923 46.0316L194.913 45.7911L194.691 43.0334L191.925 43.0316L191.923 46.0316ZM192.944 48.6601L190.658 50.6034L190.672 50.62L190.687 50.6364L192.944 48.6601ZM195.258 50.2099L194.231 53.0286L194.248 53.0349L194.265 53.0409L195.258 50.2099ZM201.678 50.1288L202.796 52.9131L202.803 52.9103L202.809 52.9075L201.678 50.1288ZM203.981 48.4826L206.325 50.3543L206.331 50.3467L206.337 50.339L203.981 48.4826ZM204.083 43.8804L201.829 45.8599L201.838 45.8708L201.848 45.8816L204.083 43.8804ZM202.11 42.5155L200.907 45.2639L200.918 45.2689L202.11 42.5155ZM199.312 41.562L198.521 44.4557L198.533 44.4591L198.545 44.4623L199.312 41.562ZM195.875 40.6222L196.666 37.7285L196.665 37.7282L195.875 40.6222ZM190.337 37.8204L188.318 40.0389L188.325 40.0459L190.337 37.8204ZM189.675 28.5444L187.25 26.7783L189.675 28.5444ZM193.37 25.6348L194.589 28.3764L194.596 28.3733L194.603 28.3701L193.37 25.6348ZM203.839 25.6274L202.586 28.353L202.592 28.3559L203.839 25.6274ZM207.417 28.4848L204.98 30.2341L204.986 30.2432L207.417 28.4848ZM208.778 32.6334L208.776 35.6334L211.85 35.6354L211.777 32.5626L208.778 32.6334ZM207.526 32.2967C207.28 30.0994 206.194 28.2596 204.347 27.016L200.996 31.9929C201.345 32.228 201.508 32.4724 201.564 32.9646L207.526 32.2967ZM204.362 27.026C202.653 25.8605 200.642 25.381 198.527 25.3796L198.523 31.3796C199.741 31.3804 200.495 31.6508 200.982 31.983L204.362 27.026ZM198.527 25.3796C197.024 25.3787 195.566 25.6155 194.234 26.1938L196.622 31.6978C197.033 31.5196 197.639 31.3791 198.523 31.3796L198.527 25.3796ZM194.259 26.183C192.976 26.726 191.836 27.5429 190.984 28.6939L195.807 32.2633C195.922 32.1081 196.137 31.9032 196.597 31.7086L194.259 26.183ZM190.98 28.6999C190.115 29.8751 189.685 31.2357 189.684 32.6779L195.684 32.6818C195.684 32.4762 195.729 32.3694 195.811 32.2573L190.98 28.6999ZM189.684 32.6779C189.683 33.85 189.961 35.0294 190.64 36.0882L195.692 32.8517C195.703 32.8688 195.704 32.8785 195.701 32.8661C195.697 32.8508 195.684 32.7943 195.684 32.6818L189.684 32.6779ZM190.661 36.1215C191.233 36.9887 191.97 37.7014 192.834 38.2575L196.082 33.2125C195.885 33.086 195.761 32.9553 195.67 32.8184L190.661 36.1215ZM192.886 38.2905C193.6 38.7292 194.355 39.0942 195.149 39.3878L197.231 33.7605C196.794 33.5988 196.395 33.4044 196.029 33.1795L192.886 38.2905ZM195.188 39.4017C195.883 39.6481 196.566 39.857 197.236 40.025L198.695 34.2051C198.229 34.0883 197.728 33.9366 197.193 33.7466L195.188 39.4017ZM197.209 40.018L200.049 40.7585L201.562 34.9526L198.722 34.2121L197.209 40.018ZM200.09 40.769C200.871 40.9607 201.69 41.2248 202.549 41.5672L204.772 35.9941C203.68 35.5588 202.596 35.2061 201.521 34.9421L200.09 40.769ZM202.549 41.5672C203.272 41.8555 203.938 42.2327 204.553 42.7023L208.191 37.9308C207.141 37.1303 205.999 36.4836 204.772 35.9941L202.549 41.5672ZM204.553 42.7023C205.044 43.0761 205.44 43.5362 205.753 44.1106L211.022 41.2409C210.314 39.9397 209.367 38.8269 208.191 37.9308L204.553 42.7023ZM205.764 44.131C205.989 44.5353 206.168 45.1332 206.167 46.0408L212.167 46.0447C212.168 44.3386 211.827 42.6918 211.011 41.2205L205.764 44.131ZM206.167 46.0408C206.166 47.1412 205.891 48.0163 205.391 48.7654L210.381 52.0968C211.587 50.2902 212.166 48.2397 212.167 46.0447L206.167 46.0408ZM205.382 48.7783C204.894 49.518 204.137 50.1857 202.955 50.7268L205.454 56.1818C207.493 55.2478 209.19 53.9 210.389 52.084L205.382 48.7783ZM202.949 50.7296C201.839 51.241 200.356 51.5598 198.396 51.5585L198.392 57.5585C200.978 57.5602 203.368 57.1428 205.46 56.179L202.949 50.7296ZM198.396 51.5585C196.528 51.5573 195.069 51.2592 193.939 50.7673L191.544 56.2687C193.595 57.1614 195.905 57.5569 198.392 57.5585L198.396 51.5585ZM193.939 50.7673C192.791 50.2676 192.003 49.6143 191.456 48.8417L186.559 52.3087C187.81 54.0752 189.511 55.3837 191.544 56.2687L193.939 50.7673ZM191.462 48.8503C190.926 48.0866 190.582 47.1294 190.515 45.8688L184.523 46.1888C184.643 48.4321 185.292 50.5059 186.553 52.3001L191.462 48.8503ZM187.517 49.0288L191.921 49.0316L191.925 43.0316L187.521 43.0288L187.517 49.0288ZM188.932 46.2722C189.06 47.8558 189.597 49.3548 190.658 50.6034L195.229 46.7169C195.099 46.5632 194.955 46.3099 194.913 45.7911L188.932 46.2722ZM190.687 50.6364C191.653 51.7398 192.861 52.5294 194.231 53.0286L196.285 47.3912C195.781 47.2074 195.446 46.9639 195.201 46.6839L190.687 50.6364ZM194.265 53.0409C195.567 53.4975 196.943 53.7082 198.367 53.7091L198.37 47.7091C197.54 47.7085 196.843 47.5865 196.251 47.379L194.265 53.0409ZM198.367 53.7091C199.919 53.7101 201.412 53.468 202.796 52.9131L200.561 47.3446C200.012 47.5649 199.299 47.7097 198.37 47.7091L198.367 53.7091ZM202.809 52.9075C204.177 52.351 205.394 51.521 206.325 50.3543L201.636 46.6109C201.449 46.8449 201.131 47.1125 200.548 47.3502L202.809 52.9075ZM206.337 50.339C207.334 49.0739 207.819 47.5843 207.82 45.9993L201.82 45.9954C201.82 46.3043 201.746 46.4715 201.624 46.6262L206.337 50.339ZM207.82 45.9993C207.821 44.5304 207.385 43.0704 206.318 41.8792L201.848 45.8816C201.84 45.8727 201.83 45.859 201.82 45.8421C201.81 45.8252 201.805 45.8127 201.803 45.8085C201.8 45.7989 201.82 45.8504 201.82 45.9954L207.82 45.9993ZM206.337 41.9008C205.5 40.9475 204.445 40.2572 203.301 39.762L200.918 45.2689C201.44 45.4945 201.701 45.7142 201.829 45.8599L206.337 41.9008ZM203.312 39.767C202.323 39.3342 201.241 38.9688 200.078 38.6616L198.545 44.4623C199.466 44.7057 200.249 44.976 200.907 45.2639L203.312 39.767ZM200.103 38.6682L196.666 37.7285L195.084 43.516L198.521 44.4557L200.103 38.6682ZM196.665 37.7282C194.653 37.1787 193.27 36.428 192.349 35.5949L188.325 40.0459C190.129 41.6766 192.439 42.7938 195.085 43.5163L196.665 37.7282ZM192.356 35.6019C191.699 35.0035 191.308 34.2169 191.309 32.9346L185.309 32.9308C185.307 35.7015 186.268 38.1734 188.318 40.0389L192.356 35.6019ZM191.309 32.9346C191.31 31.836 191.596 31.0035 192.1 30.3105L187.25 26.7783C185.935 28.5841 185.31 30.6771 185.309 32.9308L191.309 32.9346ZM192.1 30.3105C192.67 29.528 193.467 28.8749 194.589 28.3764L192.152 22.8933C190.167 23.7754 188.5 25.0619 187.25 26.7783L192.1 30.3105ZM194.603 28.3701C195.716 27.8687 197.038 27.5861 198.625 27.5871L198.629 21.5871C196.314 21.5856 194.132 22.0014 192.138 22.8995L194.603 28.3701ZM198.625 27.5871C200.243 27.5881 201.54 27.8721 202.586 28.3529L205.093 22.9018C203.128 21.9981 200.95 21.5886 198.629 21.5871L198.625 27.5871ZM202.592 28.3559C203.688 28.8567 204.448 29.4934 204.98 30.2341L209.854 26.7354C208.645 25.0508 207.02 23.7826 205.086 22.8988L202.592 28.3559ZM204.986 30.2432C205.481 30.9277 205.755 31.7151 205.779 32.7042L211.777 32.5626C211.727 30.4267 211.093 28.4483 209.848 26.7264L204.986 30.2432ZM208.78 29.6334L204.547 29.6307L204.543 35.6307L208.776 35.6334L208.78 29.6334ZM214.353 49.1853L217.037 47.8454L214.353 49.1853ZM217.914 33.3921L219.484 35.9486L217.914 33.3921ZM228.625 33.399L227.052 35.9535L228.625 33.399ZM232.166 49.1967L229.483 47.8534L232.166 49.1967ZM228.612 53.1291L230.182 55.6857L228.612 53.1291ZM226.569 49.9176L224.69 47.5787L224.69 47.5787L226.569 49.9176ZM228.502 47.1205L225.685 46.088L225.682 46.0981L225.678 46.1082L228.502 47.1205ZM228.507 39.4359L225.679 40.4373L225.684 40.4511L225.689 40.4648L228.507 39.4359ZM226.577 36.6079L224.68 38.9319L224.68 38.9319L226.577 36.6079ZM219.958 36.6037L218.076 34.2672L218.07 34.2722L218.064 34.2772L219.958 36.6037ZM218.01 39.4291L215.191 38.4039L215.186 38.4168L218.01 39.4291ZM218.005 47.1138L215.18 48.1224L215.183 48.1326L215.187 48.1427L218.005 47.1138ZM219.949 49.9133L218.067 52.2497L218.074 52.2547L218.08 52.2596L219.949 49.9133ZM223.258 51.5319C221.686 51.5309 220.462 51.1756 219.475 50.5677L216.329 55.6767C218.39 56.9459 220.735 57.5303 223.254 57.5319L223.258 51.5319ZM219.475 50.5677C218.453 49.9384 217.643 49.0587 217.037 47.8454L211.669 50.5252C212.747 52.6842 214.303 54.4291 216.329 55.6767L219.475 50.5677ZM217.037 47.8454C216.44 46.6499 216.092 45.1558 216.093 43.2773L210.093 43.2734C210.091 45.9026 210.582 48.3484 211.669 50.5252L217.037 47.8454ZM216.093 43.2773C216.094 41.3877 216.445 39.8822 217.046 38.6761L211.675 36.0013C210.588 38.1842 210.094 40.6365 210.093 43.2734L216.093 43.2773ZM217.046 38.6761C217.655 37.454 218.466 36.574 219.484 35.9486L216.345 30.8356C214.313 32.0833 212.755 33.8343 211.675 36.0013L217.046 38.6761ZM219.484 35.9486C220.472 35.3421 221.697 34.9883 223.269 34.9893L223.272 28.9893C220.753 28.9877 218.407 29.5691 216.345 30.8356L219.484 35.9486ZM223.269 34.9893C224.84 34.9903 226.065 35.3457 227.052 35.9535L230.198 30.8445C228.137 29.5754 225.792 28.9909 223.272 28.9893L223.269 34.9893ZM227.052 35.9535C228.069 36.5802 228.879 37.4612 229.486 38.6841L234.86 36.0163C233.784 33.8478 232.228 32.0948 230.198 30.8445L227.052 35.9535ZM229.486 38.6841C230.085 39.891 230.435 41.397 230.434 43.2865L236.434 43.2904C236.435 40.6535 235.945 38.2006 234.86 36.0163L229.486 38.6841ZM230.434 43.2865C230.432 45.165 230.082 46.6587 229.483 47.8534L234.848 50.5401C235.937 48.3647 236.432 45.9195 236.434 43.2904L230.434 43.2865ZM229.483 47.8534C228.876 49.0659 228.065 49.9446 227.042 50.5726L230.182 55.6857C232.209 54.4406 233.768 52.6977 234.848 50.5401L229.483 47.8534ZM227.042 50.5726C226.054 51.1792 224.829 51.5329 223.258 51.5319L223.254 57.5319C225.773 57.5335 228.119 56.9521 230.182 55.6857L227.042 50.5726ZM223.27 53.9666C225.148 53.9678 226.948 53.461 228.447 52.2564L224.69 47.5787C224.446 47.7745 224.048 47.9671 223.274 47.9666L223.27 53.9666ZM228.447 52.2564C229.795 51.1735 230.743 49.7611 231.326 48.1328L225.678 46.1082C225.427 46.809 225.085 47.2612 224.69 47.5787L228.447 52.2564ZM231.319 48.1531C231.881 46.6185 232.143 44.9813 232.144 43.2734L226.144 43.2696C226.143 44.3647 225.977 45.2936 225.685 46.088L231.319 48.1531ZM232.144 43.2734C232.145 41.5725 231.885 39.9401 231.325 38.4069L225.689 40.4648C225.98 41.2617 226.145 42.1865 226.144 43.2696L232.144 43.2734ZM231.335 38.4345C230.756 36.8 229.816 35.3789 228.474 34.2839L224.68 38.9319C225.08 39.2585 225.426 39.7227 225.679 40.4373L231.335 38.4345ZM228.474 34.2839C226.976 33.0609 225.171 32.5417 223.284 32.5405L223.28 38.5405C224.045 38.541 224.437 38.7334 224.68 38.9319L228.474 34.2839ZM223.284 32.5405C221.393 32.5392 219.583 33.0533 218.076 34.2672L221.84 38.9401C222.095 38.7347 222.502 38.54 223.28 38.5405L223.284 32.5405ZM218.064 34.2772C216.726 35.3662 215.782 36.7788 215.191 38.4039L220.829 40.4543C221.092 39.7315 221.446 39.2605 221.852 38.9301L218.064 34.2772ZM215.186 38.4168C214.639 39.9435 214.384 41.5683 214.382 43.262L220.382 43.2659C220.383 42.1755 220.546 41.2438 220.834 40.4414L215.186 38.4168ZM214.382 43.262C214.381 44.9626 214.634 46.593 215.18 48.1224L220.83 46.1051C220.545 45.3045 220.382 44.3683 220.382 43.2659L214.382 43.262ZM215.187 48.1427C215.779 49.763 216.726 51.1694 218.067 52.2497L221.831 47.5769C221.431 47.2546 221.082 46.7946 220.823 46.0848L215.187 48.1427ZM218.08 52.2596C219.585 53.459 221.388 53.9654 223.27 53.9666L223.274 47.9666C222.486 47.9661 222.074 47.7703 221.819 47.567L218.08 52.2596ZM248.565 32.2897L251.565 32.2916L251.567 29.2916L248.567 29.2897L248.565 32.2897ZM248.563 35.6988L248.561 38.6988L251.561 38.7007L251.563 35.7007L248.563 35.6988ZM236.233 35.6908L233.233 35.6889L233.231 38.6889L236.231 38.6908L236.233 35.6908ZM236.235 32.2818L236.237 29.2818L233.237 29.2798L233.235 32.2798L236.235 32.2818ZM239.602 54.1021L236.602 54.1002L236.6 57.1002L239.6 57.1021L239.602 54.1021ZM240.515 26.3612L243.014 28.0208L243.018 28.0148L243.022 28.0088L240.515 26.3612ZM242.888 24.3315L244.122 27.0661L244.133 27.0612L244.144 27.0562L242.888 24.3315ZM248.286 23.8662L247.6 26.7866L247.622 26.7917L247.643 26.7965L248.286 23.8662ZM249.636 24.2364L252.517 25.0719L253.282 22.4329L250.72 21.4394L249.636 24.2364ZM248.639 27.6733L247.813 30.5573L250.688 31.3806L251.52 28.5087L248.639 27.6733ZM247.872 27.4739L247.081 30.3677L247.122 30.3789L247.163 30.389L247.872 27.4739ZM244.519 28.1109L242.258 26.1399L242.247 26.1519L242.237 26.1641L244.519 28.1109ZM243.849 54.1048L243.847 57.1048L246.847 57.1068L246.849 54.1068L243.849 54.1048ZM245.565 32.2878L245.563 35.6969L251.563 35.7007L251.565 32.2916L245.565 32.2878ZM248.565 32.6988L236.235 32.6908L236.231 38.6908L248.561 38.6988L248.565 32.6988ZM239.233 35.6928L239.235 32.2837L233.235 32.2798L233.233 35.6889L239.233 35.6928ZM236.234 35.2818L248.563 35.2897L248.567 29.2897L236.237 29.2818L236.234 35.2818ZM242.602 54.104L242.618 29.7575L236.618 29.7536L236.602 54.1002L242.602 54.104ZM242.618 29.7575C242.618 28.8287 242.819 28.3139 243.014 28.0208L238.016 24.7016C237.016 26.207 236.619 27.9551 236.618 29.7536L242.618 29.7575ZM243.022 28.0088C243.308 27.5728 243.659 27.2749 244.122 27.0661L241.655 21.5969C240.147 22.277 238.916 23.3322 238.008 24.7136L243.022 28.0088ZM244.144 27.0562C244.709 26.7956 245.347 26.6513 246.097 26.6517L246.101 20.6517C244.54 20.6507 243.038 20.9596 241.633 21.6068L244.144 27.0562ZM246.097 26.6517C246.797 26.6522 247.283 26.7122 247.6 26.7866L248.973 20.9458C248.077 20.7353 247.105 20.6524 246.101 20.6517L246.097 26.6517ZM247.643 26.7965C248.214 26.9217 248.48 27.0059 248.551 27.0334L250.72 21.4394C250.204 21.2393 249.571 21.0767 248.929 20.9359L247.643 26.7965ZM246.754 23.401L245.758 26.8378L251.52 28.5087L252.517 25.0719L246.754 23.401ZM249.465 24.7892C249.212 24.7168 248.914 24.6397 248.581 24.5588L247.163 30.389C247.455 30.46 247.668 30.5158 247.813 30.5573L249.465 24.7892ZM248.663 24.5801C248.018 24.4037 247.358 24.3457 246.738 24.3453L246.734 30.3453C246.862 30.3454 246.955 30.3517 247.016 30.3587C247.078 30.3657 247.097 30.372 247.081 30.3677L248.663 24.5801ZM246.738 24.3453C245.293 24.3444 243.516 24.6956 242.258 26.1399L246.781 30.082C246.701 30.1737 246.616 30.2441 246.538 30.2943C246.463 30.3433 246.407 30.365 246.387 30.3718C246.369 30.3782 246.384 30.3709 246.443 30.3623C246.503 30.3537 246.598 30.3452 246.734 30.3453L246.738 24.3453ZM242.237 26.1641C241.172 27.4124 240.865 28.9521 240.865 30.3245L246.865 30.3284C246.865 30.0631 246.896 29.9327 246.906 29.8985C246.913 29.8736 246.894 29.95 246.802 30.0578L242.237 26.1641ZM240.865 30.3245L240.849 54.1029L246.849 54.1068L246.865 30.3284L240.865 30.3245ZM243.851 51.1048L239.604 51.1021L239.6 57.1021L243.847 57.1048L243.851 51.1048ZM263.132 32.2991L266.132 32.301L266.134 29.301L263.134 29.2991L263.132 32.2991ZM263.13 35.7082L263.128 38.7082L266.128 38.7101L266.13 35.7101L263.13 35.7082ZM251.212 35.7005L248.212 35.6986L248.21 38.6986L251.21 38.7005L251.212 35.7005ZM251.214 32.2914L251.216 29.2914L248.216 29.2895L248.214 32.2895L251.214 32.2914ZM254.414 27.0662L254.415 24.0662L251.415 24.0643L251.414 27.0643L254.414 27.0662ZM258.661 27.0689L261.661 27.0709L261.663 24.0709L258.663 24.0689L258.661 27.0689ZM259.016 49.5692L256.432 51.0937L256.439 51.1068L256.447 51.1198L259.016 49.5692ZM259.967 50.4078L258.874 53.2019L258.915 53.2177L258.956 53.2324L259.967 50.4078ZM262.154 50.5513L262.698 53.5015L262.154 50.5513ZM262.751 50.438L265.682 49.7992L265.054 46.9198L262.164 47.4959L262.751 50.438ZM263.516 53.9471L264.591 56.7478L266.995 55.8247L266.447 53.3082L263.516 53.9471ZM262.464 54.2305L261.854 51.2931L261.825 51.2992L261.796 51.3058L262.464 54.2305ZM260.76 54.3998L260.72 51.4001L260.711 51.4002L260.76 54.3998ZM257.635 53.8012L256.445 56.5551L257.635 53.8012ZM255.292 51.8679L252.816 53.5613L255.292 51.8679ZM260.132 32.2971L260.13 35.7062L266.13 35.7101L266.132 32.301L260.132 32.2971ZM263.131 32.7082L251.214 32.7005L251.21 38.7005L263.128 38.7082L263.131 32.7082ZM254.212 35.7024L254.214 32.2933L248.214 32.2895L248.212 35.6986L254.212 35.7024ZM251.212 35.2914L263.13 35.2991L263.134 29.2991L251.216 29.2914L251.212 35.2914ZM254.412 30.0662L258.659 30.0689L258.663 24.0689L254.415 24.0662L254.412 30.0662ZM255.661 27.067L255.647 47.7062L261.647 47.7101L261.661 27.0709L255.661 27.067ZM255.647 47.7062C255.647 48.7349 255.783 49.9942 256.432 51.0937L261.599 48.0446C261.692 48.2018 261.697 48.2834 261.682 48.2091C261.668 48.1389 261.647 47.9813 261.647 47.7101L255.647 47.7062ZM256.447 51.1198C256.984 52.0088 257.785 52.776 258.874 53.2019L261.059 47.6138C261.196 47.6675 261.321 47.7453 261.422 47.8341C261.519 47.9201 261.568 47.9931 261.584 48.0185L256.447 51.1198ZM258.956 53.2324C259.708 53.5015 260.483 53.6212 261.257 53.6217L261.261 47.6217C261.107 47.6216 261.021 47.5988 260.978 47.5833L258.956 53.2324ZM261.257 53.6217C261.728 53.622 262.217 53.5903 262.698 53.5015L261.61 47.6011C261.58 47.6066 261.472 47.6219 261.261 47.6217L261.257 53.6217ZM262.698 53.5015C262.959 53.4534 263.174 53.4126 263.337 53.3802L262.164 47.4959C262.043 47.5201 261.861 47.5548 261.61 47.6011L262.698 53.5015ZM259.82 51.0769L260.584 54.5859L266.447 53.3082L265.682 49.7992L259.82 51.0769ZM262.44 51.1463C262.442 51.1458 262.397 51.1627 262.287 51.1922C262.181 51.2207 262.039 51.2547 261.854 51.2931L263.074 57.1678C263.588 57.0612 264.121 56.928 264.591 56.7478L262.44 51.1463ZM261.796 51.3058C261.618 51.3464 261.278 51.3927 260.72 51.4001L260.799 57.3996C261.605 57.3889 262.401 57.3223 263.132 57.1551L261.796 51.3058ZM260.711 51.4002C259.992 51.4119 259.376 51.2853 258.825 51.0474L256.445 56.5551C257.826 57.1517 259.292 57.4241 260.808 57.3994L260.711 51.4002ZM258.825 51.0474C258.382 50.8558 258.046 50.58 257.769 50.1745L252.816 53.5613C253.731 54.8989 254.957 55.912 256.445 56.5551L258.825 51.0474ZM257.769 50.1745C257.59 49.9132 257.399 49.4493 257.4 48.588L251.4 48.5841C251.399 50.3554 251.803 52.0794 252.816 53.5613L257.769 50.1745ZM257.4 48.588L257.414 27.0681L251.414 27.0643L251.4 48.5841L257.4 48.588Z" fill="black" mask="url(#path-4-outside-1_33_817)"/>
</svg>
