<svg width="128" height="128" viewBox="0 0 128 128" fill="none" xmlns="http://www.w3.org/2000/svg">
<g clip-path="url(#clip0_3_20)">
<rect width="128" height="128" rx="4.26667" fill="#3178C6"/>
<rect width="128" height="128" rx="4.26667" fill="white"/>
<path d="M77.1818 68.4545V115H70.7273L47.0682 80.8636H46.6364V115H39.6136V68.4545H46.1136L69.7955 102.636H70.2273V68.4545H77.1818ZM112.812 80.6818C112.57 78.5303 111.57 76.8636 109.812 75.6818C108.055 74.4848 105.843 73.8864 103.176 73.8864C101.267 73.8864 99.6155 74.1894 98.2216 74.7955C96.8277 75.3864 95.7443 76.2045 94.9716 77.25C94.214 78.2803 93.8352 79.4545 93.8352 80.7727C93.8352 81.8788 94.0928 82.8333 94.608 83.6364C95.1383 84.4394 95.8277 85.1136 96.6761 85.6591C97.5398 86.1894 98.464 86.6364 99.4489 87C100.434 87.3485 101.381 87.6364 102.29 87.8636L106.835 89.0455C108.32 89.4091 109.843 89.9015 111.403 90.5227C112.964 91.1439 114.411 91.9621 115.744 92.9773C117.078 93.9924 118.153 95.25 118.972 96.75C119.805 98.25 120.222 100.045 120.222 102.136C120.222 104.773 119.54 107.114 118.176 109.159C116.828 111.205 114.866 112.818 112.29 114C109.729 115.182 106.631 115.773 102.994 115.773C99.5095 115.773 96.4943 115.22 93.9489 114.114C91.4034 113.008 89.411 111.439 87.9716 109.409C86.5322 107.364 85.7367 104.939 85.5852 102.136H92.6307C92.767 103.818 93.3125 105.22 94.267 106.341C95.2367 107.447 96.4716 108.273 97.9716 108.818C99.4867 109.348 101.146 109.614 102.949 109.614C104.934 109.614 106.699 109.303 108.244 108.682C109.805 108.045 111.032 107.167 111.926 106.045C112.82 104.909 113.267 103.583 113.267 102.068C113.267 100.689 112.873 99.5606 112.085 98.6818C111.313 97.803 110.259 97.0758 108.926 96.5C107.608 95.9242 106.116 95.4167 104.449 94.9773L98.9489 93.4773C95.2216 92.4621 92.267 90.9697 90.0852 89C87.9186 87.0303 86.8352 84.4242 86.8352 81.1818C86.8352 78.5 87.5625 76.1591 89.017 74.1591C90.4716 72.1591 92.4413 70.6061 94.9261 69.5C97.411 68.3788 100.214 67.8182 103.335 67.8182C106.487 67.8182 109.267 68.3712 111.676 69.4773C114.1 70.5833 116.009 72.1061 117.403 74.0455C118.797 75.9697 119.525 78.1818 119.585 80.6818H112.812Z" fill="#3178C6"/>
<path d="M77.1818 68.4545V115H70.7273L47.0682 80.8636H46.6364V115H39.6136V68.4545H46.1136L69.7955 102.636H70.2273V68.4545H77.1818ZM112.812 80.6818C112.57 78.5303 111.57 76.8636 109.812 75.6818C108.055 74.4848 105.843 73.8864 103.176 73.8864C101.267 73.8864 99.6155 74.1894 98.2216 74.7955C96.8277 75.3864 95.7443 76.2045 94.9716 77.25C94.214 78.2803 93.8352 79.4545 93.8352 80.7727C93.8352 81.8788 94.0928 82.8333 94.608 83.6364C95.1383 84.4394 95.8277 85.1136 96.6761 85.6591C97.5398 86.1894 98.464 86.6364 99.4489 87C100.434 87.3485 101.381 87.6364 102.29 87.8636L106.835 89.0455C108.32 89.4091 109.843 89.9015 111.403 90.5227C112.964 91.1439 114.411 91.9621 115.744 92.9773C117.078 93.9924 118.153 95.25 118.972 96.75C119.805 98.25 120.222 100.045 120.222 102.136C120.222 104.773 119.54 107.114 118.176 109.159C116.828 111.205 114.866 112.818 112.29 114C109.729 115.182 106.631 115.773 102.994 115.773C99.5095 115.773 96.4943 115.22 93.9489 114.114C91.4034 113.008 89.411 111.439 87.9716 109.409C86.5322 107.364 85.7367 104.939 85.5852 102.136H92.6307C92.767 103.818 93.3125 105.22 94.267 106.341C95.2367 107.447 96.4716 108.273 97.9716 108.818C99.4867 109.348 101.146 109.614 102.949 109.614C104.934 109.614 106.699 109.303 108.244 108.682C109.805 108.045 111.032 107.167 111.926 106.045C112.82 104.909 113.267 103.583 113.267 102.068C113.267 100.689 112.873 99.5606 112.085 98.6818C111.313 97.803 110.259 97.0758 108.926 96.5C107.608 95.9242 106.116 95.4167 104.449 94.9773L98.9489 93.4773C95.2216 92.4621 92.267 90.9697 90.0852 89C87.9186 87.0303 86.8352 84.4242 86.8352 81.1818C86.8352 78.5 87.5625 76.1591 89.017 74.1591C90.4716 72.1591 92.4413 70.6061 94.9261 69.5C97.411 68.3788 100.214 67.8182 103.335 67.8182C106.487 67.8182 109.267 68.3712 111.676 69.4773C114.1 70.5833 116.009 72.1061 117.403 74.0455C118.797 75.9697 119.525 78.1818 119.585 80.6818H112.812Z" fill="black"/>
</g>
<defs>
<clipPath id="clip0_3_20">
<rect width="128" height="128" rx="4.26667" fill="white"/>
</clipPath>
</defs>
</svg>
